<?xml version="1.0" encoding="UTF-8"?><svg xmlns="http://www.w3.org/2000/svg" xmlns:xlink="http://www.w3.org/1999/xlink" viewBox="0 0 48 48" version="1.1"><g id="surface1" fill="#F44336"><path d="M5 18h2v12.2c-.8.1-1.602.198-2.3.3C3.7 28 2 23.7 2 23.7v7.1c.398 0-.2 0-2 .302v-13h2l3 7.296V18z"/><path d="M14.7 20v-2H9v12c1.898-.2 3.8-.398 5.7-.602v-2c-1.2.102-2.4.102-3.7.403V25h3v-2h-3v-3c.602.102 3.2.102 3.7 0z"/><path d="M16 20h2v9.2c.7 0 1.3 0 2-.098V20h2v-2h-6v2z"/><path d="M28.602 18H23v11h2v-4h2.7v-2H25v-3h3.602v-2z"/><path d="M32 27.5V18h-2v11.2c1.8.1 3.602.198 5.398.402v-1.903c-1.097-.097-2.296-.199-3.398-.199z"/><path d="M37 29.7c.7.1 1.3.1 2 .198V18h-2v11.7z"/><path d="M45.398 24.2c.903-2 1.704-4 2.602-6.098h-2.2c-.5 1.296-.902 2.199-1.402 3.398-.5-1.3-.796-2.2-1.296-3.398h-2.204c.801 2 1.5 4 2.403 6.097-.903 2-1.7 4-2.602 6 .7.102 1.403.2 2.102.301.5-1.3 1-2.2 1.5-3.5.5 1.398 1 2.398 1.5 3.8.699.098 1.597.2 2.3.302-1-2.403-1.902-4.801-2.703-6.903z"/></g><metadata><rdf:RDF xmlns:rdf="http://www.w3.org/1999/02/22-rdf-syntax-ns#" xmlns:rdfs="http://www.w3.org/2000/01/rdf-schema#" xmlns:dc="http://purl.org/dc/elements/1.1/"><rdf:Description about="https://iconscout.com/legal#licenses" dc:title="netflix" dc:description="netflix" dc:publisher="Iconscout" dc:date="2017-12-15" dc:format="image/svg+xml" dc:language="en"><dc:creator><rdf:Bag><rdf:li>Icons8</rdf:li></rdf:Bag></dc:creator></rdf:Description></rdf:RDF></metadata></svg>